# xmcd
#
# Track frame offsets: 
#        150
#        3586
#        23608
#        38610
#        57306
#        77059
#        88157
#        104981
#        123330
#        142127
#        159924
#        176759
#        195018
#        212754
#
# Disc length: 3332 seconds
#
# Revision: 1
# Processed by: cddbd v1.5.2PL0 Copyright (c) Steve Scherf et al.
# Submitted via: ExactAudioCopyFreeDBPlugin 1.0
#
DISCID=b70d020e
DTITLE=Jake The Break and Flam - Rattaat Pyörimään
DYEAR=2010
DGENRE=Rap
TTITLE0=Intro (Feat. Manageri)
TTITLE1=Uuden Ajan Lumisotaa (feat. Juno)
TTITLE2=Kuinka Korkeelle (feat. Joniveli)
TTITLE3=Painakaa Pojat Mieleen (feat. Kajo and Are)
TTITLE4=Systeemi (feat. Chyde)
TTITLE5=Kultasia Päiviä (feat. Haamu)
TTITLE6=Ysikuus (feat. Pyhimys and Jonde)
TTITLE7=Muutama Sana (feat. Solonen, Kivat Pojat (Ben and Staffro) and Iku
TTITLE7=boi)
TTITLE8=Älä Luovuta (feat. Saara Aalto)
TTITLE9=Helpompaa Hulluna (feat. TK, Tuomo, Elastinen, Timo PieniHuija
TTITLE9=us and Solonen)
TTITLE10=Virtaan (feat. Kesken)
TTITLE11=Koko Päivän Joka Päivä (feat. Stepa)
TTITLE12=Kolme Paria Lenkkareita (feat. SP)
TTITLE13=Rattaat Pyörimään (feat. Särre)
EXTD=
EXTT0=
EXTT1=
EXTT2=
EXTT3=
EXTT4=
EXTT5=
EXTT6=
EXTT7=
EXTT8=
EXTT9=
EXTT10=
EXTT11=
EXTT12=
EXTT13=
PLAYORDER=
